<?xml version='1.0' encoding='utf-8'?>
<svg xmlns="http://www.w3.org/2000/svg" viewBox="0 0 64 64" width="256" height="256" role="img" aria-labelledby="title desc" shape-rendering="crispEdges"><title id="title">像素蘑菇 帧 3 兴奋</title><desc id="desc">透明背景的像素风表情动画帧</desc><g id="icon" style="transform-origin:32px 32px">
      <path fill="#050505" d="M50 15h1v1H50z M51 16h1v1H51z M26 32h12v1H26z M19 33h7v1H19z M38 33h7v1H38z M18 34h1v1H18z M45 34h3v1H45z M15 35h3v1H15z M48 35h2v1H48z M13 36h2v1H13z M50 36h2v1H50z M13 37h1v1H13z M51 37h1v1H51z M13 38h1v1H13z M51 38h1v1H51z M14 39h1v1H14z M50 39h1v1H50z M15 40h2v1H15z M24 40h2v1H24z M38 40h2v1H38z M48 40h2v1H48z M23 41h1v1H23z M26 41h1v1H26z M37 41h1v1H37z M40 41h1v1H40z M47 41h1v1H47z M30 42h4v1H30z M29 43h1v1H29z M34 43h1v1H34z M30 44h4v1H30z" />
      <path fill="#D8FF3E" d="M28 6h9v1H28z M25 7h4v1H25z M34 7h6v1H34z M23 8h5v1H23z M35 8h7v1H35z M21 9h6v1H21z M36 9h8v1H36z M19 10h4v1H19z M24 10h2v1H24z M37 10h7v1H37z M18 11h3v1H18z M23 11h3v1H23z M37 11h9v1H37z M18 12h2v1H18z M23 12h3v1H23z M37 12h11v1H37z M17 13h2v1H17z M20 13h1v1H20z M22 13h4v1H22z M37 13h3v1H37z M42 13h7v1H42z M16 14h11v1H16z M36 14h3v1H36z M43 14h6v1H43z M15 15h3v1H15z M19 15h2v1H19z M24 15h4v1H24z M35 15h4v1H35z M43 15h7v1H43z M14 16h3v1H14z M18 16h2v1H18z M24 16h5v1H24z M34 16h5v1H34z M43 16h8v1H43z M13 17h3v1H13z M17 17h2v1H17z M25 17h15v1H25z M42 17h10v1H42z M12 18h3v1H12z M16 18h2v1H16z M26 18h6v1H26z M35 18h18v1H35z M11 19h3v1H11z M15 19h3v1H15z M26 19h5v1H26z M36 19h18v1H36z M11 20h2v1H11z M14 20h4v1H14z M25 20h5v1H25z M37 20h10v1H37z M50 20h4v1H50z M10 21h9v1H10z M24 21h6v1H24z M37 21h9v1H37z M51 21h4v1H51z M9 22h11v1H9z M23 22h8v1H23z M36 22h9v1H36z M52 22h4v1H52z M8 23h3v1H8z M12 23h20v1H12z M35 23h9v1H35z M53 23h3v1H53z M8 24h6v1H8z M16 24h28v1H16z M53 24h3v1H53z M7 25h6v1H7z M17 25h27v1H17z M53 25h5v1H53z M7 26h5v1H7z M18 26h27v1H18z M52 26h6v1H52z M7 27h5v1H7z M19 27h20v1H19z M40 27h6v1H40z M51 27h7v1H51z M8 28h5v1H8z M18 28h20v1H18z M41 28h6v1H41z M50 28h7v1H50z M8 29h4v1H8z M17 29h22v1H17z M40 29h17v1H40z M9 30h16v1H9z M37 30h19v1H37z M10 31h10v1H10z M44 31h11v1H44z M12 32h6v1H12z M47 32h7v1H47z M49 33h4v1H49z" />
      <path fill="#EDFF77" d="M35 14h1v1H35z M21 15h3v1H21z" />
      <path fill="#B5D92F" d="M44 10h2v1H44z M46 11h1v1H46z M22 12h1v1H22z M21 13h1v1H21z M49 14h1v1H49z M56 23h1v1H56z M56 24h1v1H56z M18 27h1v1H18z M17 28h1v1H17z M12 29h2v1H12z M16 29h1v1H16z" />
      <path fill="#9EBB13" d="M17 12h1v1H17z M6 28h2v1H6z M57 28h2v1H57z M6 29h2v1H6z M57 29h2v1H57z M6 30h3v1H6z M25 30h12v1H25z M56 30h3v1H56z M6 31h4v1H6z M20 31h24v1H20z M55 31h4v1H55z M6 32h6v1H6z M18 32h8v1H18z M38 32h9v1H38z M54 32h5v1H54z M6 33h13v1H6z M45 33h4v1H45z M53 33h6v1H53z M6 34h12v1H6z M48 34h11v1H48z M6 35h9v1H6z M50 35h9v1H50z M7 36h6v1H7z M52 36h6v1H52z M7 37h6v1H7z M52 37h6v1H52z M8 38h5v1H8z M52 38h5v1H52z M9 39h5v1H9z M51 39h5v1H51z M11 40h4v1H11z M50 40h4v1H50z M13 41h4v1H13z M48 41h4v1H48z M15 42h2v1H15z M47 42h3v1H47z" />
      <path fill="#FFF4EE" d="M29 7h5v1H29z M28 8h7v1H28z M27 9h9v1H27z M23 10h1v1H23z M26 10h11v1H26z M21 11h2v1H21z M26 11h11v1H26z M21 12h1v1H21z M26 12h11v1H26z M26 13h11v1H26z M40 13h2v1H40z M28 14h7v1H28z M40 14h2v1H40z M28 15h7v1H28z M39 15h4v1H39z M17 16h1v1H17z M20 16h4v1H20z M29 16h5v1H29z M39 16h4v1H39z M16 17h1v1H16z M19 17h6v1H19z M41 17h1v1H41z M15 18h1v1H15z M18 18h8v1H18z M32 18h3v1H32z M14 19h1v1H14z M18 19h8v1H18z M31 19h5v1H31z M13 20h1v1H13z M18 20h7v1H18z M30 20h7v1H30z M47 20h3v1H47z M19 21h5v1H19z M30 21h7v1H30z M46 21h5v1H46z M20 22h3v1H20z M31 22h5v1H31z M45 22h7v1H45z M11 23h1v1H11z M32 23h3v1H32z M44 23h9v1H44z M14 24h2v1H14z M44 24h9v1H44z M13 25h4v1H13z M44 25h9v1H44z M12 26h6v1H12z M45 26h7v1H45z M12 27h6v1H12z M39 27h1v1H39z M46 27h5v1H46z M13 28h4v1H13z M38 28h3v1H38z M47 28h3v1H47z M14 29h2v1H14z M39 29h1v1H39z M28 33h9v1H28z M27 34h11v1H27z M24 35h17v1H24z M22 36h20v1H22z M21 37h22v1H21z M20 38h24v1H20z M20 39h25v1H20z M20 40h4v1H20z M26 40h12v1H26z M40 40h5v1H40z M19 41h4v1H19z M24 41h2v1H24z M27 41h10v1H27z M38 41h2v1H38z M41 41h4v1H41z M19 42h11v1H19z M34 42h11v1H34z M18 43h3v1H18z M24 43h5v1H24z M35 43h6v1H35z M44 43h2v1H44z M18 44h3v1H18z M24 44h6v1H24z M34 44h7v1H34z M44 44h2v1H44z M18 45h29v1H18z M18 46h29v1H18z M18 47h29v1H18z M19 48h27v1H19z M19 49h27v1H19z M20 50h25v1H20z M21 51h23v1H21z M23 52h19v1H23z M25 53h15v1H25z" />
      <path fill="#F2F0E9" d="M20 12h1v1H20z M39 14h1v1H39z M42 14h1v1H42z M18 15h1v1H18z M40 17h1v1H40z M46 43h1v1H46z M46 44h1v1H46z" />
      <path fill="#D8D3CA" d="M19 13h1v1H19z M27 14h1v1H27z M26 33h2v1H26z M37 33h1v1H37z M19 34h8v1H19z M38 34h7v1H38z M18 35h6v1H18z M41 35h4v1H41z M15 36h7v1H15z M42 36h4v1H42z M14 37h7v1H14z M43 37h4v1H43z M15 38h5v1H15z M44 38h3v1H44z M15 39h5v1H15z M45 39h5v1H45z M17 40h3v1H17z M45 40h3v1H45z M45 41h2v1H45z M18 42h1v1H18z M45 42h2v1H45z M17 45h1v1H17z M47 45h1v1H47z M17 46h1v1H17z M47 46h1v1H47z M17 47h1v1H17z M47 47h1v1H47z M17 48h2v1H17z M46 48h2v1H46z M17 49h2v1H17z M46 49h2v1H46z M18 50h2v1H18z M45 50h2v1H45z M18 51h3v1H18z M44 51h3v1H44z M19 52h4v1H19z M42 52h4v1H42z M21 53h4v1H21z M40 53h4v1H40z M23 54h19v1H23z M26 55h13v1H26z" />
      <path fill="#AAA99F" d="M45 35h3v1H45z M46 36h4v1H46z M47 37h4v1H47z M14 38h1v1H14z M47 38h4v1H47z M18 41h1v1H18z" />
      <path fill="#FF9FB5" d="M21 43h3v1H21z M30 43h4v1H30z M41 43h3v1H41z M21 44h3v1H21z M41 44h3v1H41z" />
    </g>
  </svg>