<?xml version='1.0' encoding='utf-8'?>
<svg xmlns="http://www.w3.org/2000/svg" viewBox="0 0 64 64" width="256" height="256" role="img" aria-labelledby="title desc" shape-rendering="crispEdges"><title id="title">像素太阳 帧 3 兴奋</title><desc id="desc">透明背景的像素风表情动画帧</desc><g id="icon" style="transform-origin:32px 32px">
      <path fill="#050505" d="M33 7h1v1H33z M33 8h1v1H33z M15 27h14v1H15z M34 27h15v1H34z M15 28h6v1H15z M23 28h19v1H23z M44 28h5v1H44z M15 29h6v1H15z M23 29h19v1H23z M44 29h5v1H44z M16 30h3v1H16z M22 30h8v1H22z M34 30h7v1H34z M43 30h5v1H43z M16 31h2v1H16z M21 31h9v1H21z M34 31h5v1H34z M42 31h6v1H42z M20 32h9v1H20z M35 32h3v1H35z M41 32h5v1H41z M19 33h9v1H19z M36 33h2v1H36z M41 33h4v1H41z M20 34h7v1H20z M37 34h7v1H37z M20 35h6v1H20z M37 35h7v1H37z M34 38h4v1H34z M33 39h1v1H33z M38 39h1v1H38z M34 40h4v1H34z M33 55h1v1H33z M33 56h1v1H33z M33 57h1v1H33z" />
      <path fill="#D8FF3E" d="M32 6h1v1H32z M32 7h1v1H32z M31 8h2v1H31z M31 9h1v1H31z M21 10h1v1H21z M31 10h1v1H31z M42 10h1v1H42z M21 11h3v1H21z M29 11h3v1H29z M40 11h3v1H40z M22 12h2v1H22z M29 12h3v1H29z M40 12h2v1H40z M22 13h4v1H22z M29 13h1v1H29z M38 13h4v1H38z M22 14h2v1H22z M40 14h2v1H40z M12 15h2v1H12z M21 15h3v1H21z M40 15h3v1H40z M50 15h2v1H50z M12 16h5v1H12z M22 16h1v1H22z M28 16h8v1H28z M41 16h1v1H41z M47 16h5v1H47z M13 17h7v1H13z M22 17h1v1H22z M25 17h14v1H25z M41 17h1v1H41z M44 17h7v1H44z M15 18h5v1H15z M23 18h4v1H23z M29 18h12v1H29z M44 18h5v1H44z M15 19h3v1H15z M21 19h4v1H21z M27 19h16v1H27z M46 19h3v1H46z M16 20h1v1H16z M20 20h4v1H20z M26 20h18v1H26z M47 20h1v1H47z M16 21h1v1H16z M19 21h5v1H19z M26 21h19v1H26z M47 21h1v1H47z M18 22h4v1H18z M24 22h22v1H24z M17 23h4v1H17z M22 23h2v1H22z M26 23h21v1H26z M9 24h1v1H9z M11 24h4v1H11z M17 24h30v1H17z M49 24h4v1H49z M54 24h1v1H54z M10 25h5v1H10z M17 25h30v1H17z M49 25h5v1H49z M11 26h2v1H11z M16 26h32v1H16z M51 26h2v1H51z M29 27h5v1H29z M9 30h5v1H9z M15 30h1v1H15z M30 30h4v1H30z M48 30h1v1H48z M50 30h5v1H50z M7 31h7v1H7z M15 31h1v1H15z M30 31h4v1H30z M48 31h1v1H48z M50 31h7v1H50z M7 32h6v1H7z M15 32h2v1H15z M29 32h6v1H29z M47 32h2v1H47z M51 32h6v1H51z M8 33h3v1H8z M15 33h3v1H15z M28 33h8v1H28z M46 33h3v1H46z M53 33h3v1H53z M15 34h5v1H15z M27 34h10v1H27z M44 34h5v1H44z M16 35h4v1H16z M27 35h10v1H27z M44 35h4v1H44z M16 36h32v1H16z M13 37h1v1H13z M16 37h32v1H16z M50 37h1v1H50z M10 38h5v1H10z M17 38h10v1H17z M29 38h5v1H29z M38 38h5v1H38z M45 38h2v1H45z M49 38h5v1H49z M10 39h3v1H10z M17 39h16v1H17z M39 39h8v1H39z M51 39h3v1H51z M9 40h1v1H9z M18 40h16v1H18z M38 40h8v1H38z M54 40h1v1H54z M18 41h28v1H18z M16 42h1v1H16z M19 42h26v1H19z M47 42h1v1H47z M16 43h1v1H16z M20 43h24v1H20z M47 43h1v1H47z M15 44h2v1H15z M21 44h22v1H21z M47 44h2v1H47z M15 45h3v1H15z M22 45h20v1H22z M46 45h3v1H46z M13 46h4v1H13z M25 46h14v1H25z M47 46h4v1H47z M12 47h5v1H12z M22 47h1v1H22z M28 47h8v1H28z M41 47h1v1H41z M47 47h5v1H47z M21 48h3v1H21z M40 48h3v1H40z M22 49h2v1H22z M40 49h2v1H40z M22 50h3v1H22z M29 50h1v1H29z M39 50h3v1H39z M22 51h2v1H22z M29 51h3v1H29z M40 51h2v1H40z M21 52h3v1H21z M29 52h3v1H29z M40 52h3v1H40z M21 53h1v1H21z M30 53h2v1H30z M42 53h1v1H42z M30 54h2v1H30z M30 55h3v1H30z M32 56h1v1H32z M32 57h1v1H32z" />
      <path fill="#EDFF77" d="M24 23h1v1H24z M34 39h4v1H34z" />
      <path fill="#B5D92F" d="M10 24h1v1H10z M53 24h1v1H53z M17 32h1v1H17z" />
      <path fill="#9EBB13" d="M32 9h1v1H32z M32 10h1v1H32z M32 11h3v1H32z M32 12h3v1H32z M30 13h5v1H30z M24 14h3v1H24z M28 14h8v1H28z M37 14h3v1H37z M24 15h3v1H24z M28 15h8v1H28z M37 15h3v1H37z M23 16h5v1H23z M36 16h5v1H36z M23 17h2v1H23z M39 17h2v1H39z M22 18h1v1H22z M41 18h1v1H41z M18 19h3v1H18z M43 19h3v1H43z M17 20h3v1H17z M44 20h3v1H44z M17 21h2v1H17z M45 21h2v1H45z M17 22h1v1H17z M46 22h1v1H46z M16 23h1v1H16z M47 23h1v1H47z M15 24h2v1H15z M47 24h2v1H47z M15 25h2v1H15z M47 25h2v1H47z M13 26h3v1H13z M48 26h3v1H48z M13 27h2v1H13z M49 27h2v1H49z M13 28h2v1H13z M49 28h2v1H49z M12 29h3v1H12z M49 29h3v1H49z M14 30h1v1H14z M19 30h1v1H19z M49 30h1v1H49z M14 31h1v1H14z M49 31h1v1H49z M13 32h2v1H13z M19 32h1v1H19z M46 32h1v1H46z M49 32h2v1H49z M11 33h4v1H11z M18 33h1v1H18z M45 33h1v1H45z M49 33h4v1H49z M11 34h4v1H11z M49 34h4v1H49z M13 35h3v1H13z M26 35h1v1H26z M48 35h3v1H48z M14 36h2v1H14z M48 36h2v1H48z M11 37h2v1H11z M14 37h2v1H14z M48 37h2v1H48z M51 37h2v1H51z M15 38h2v1H15z M47 38h2v1H47z M13 39h4v1H13z M47 39h4v1H47z M12 40h6v1H12z M46 40h6v1H46z M17 41h1v1H17z M46 41h1v1H46z M17 42h2v1H17z M45 42h2v1H45z M17 43h3v1H17z M44 43h3v1H44z M17 44h4v1H17z M43 44h4v1H43z M18 45h4v1H18z M42 45h4v1H42z M17 46h3v1H17z M22 46h3v1H22z M39 46h3v1H39z M44 46h3v1H44z M23 47h5v1H23z M36 47h5v1H36z M12 48h2v1H12z M24 48h16v1H24z M50 48h2v1H50z M24 49h3v1H24z M28 49h8v1H28z M37 49h3v1H37z M30 50h5v1H30z M38 50h1v1H38z M32 51h3v1H32z M32 52h3v1H32z M32 53h1v1H32z M32 54h1v1H32z" />
      <path fill="#FFF4EE" d="M21 28h2v1H21z M42 28h2v1H42z M21 29h2v1H21z M42 29h1v1H42z M20 30h2v1H20z M41 30h2v1H41z M18 31h3v1H18z M39 31h3v1H39z M18 32h1v1H18z M38 32h3v1H38z" />
      <path fill="#F2F0E9" d="M27 18h2v1H27z M25 19h2v1H25z M24 20h2v1H24z M24 21h2v1H24z M22 22h2v1H22z M21 23h1v1H21z M25 23h1v1H25z M43 29h1v1H43z M38 33h3v1H38z" />
      <path fill="#FF9FB5" d="M27 38h2v1H27z M43 38h2v1H43z" />
    </g>
  </svg>